<?xml version="1.0" standalone="no"?>
<!DOCTYPE svg PUBLIC "-//W3C//DTD SVG 20010904//EN" "http://www.w3.org/TR/2001/REC-SVG-20010904/DTD/svg10.dtd">
<!-- Created using Krita: http://krita.org -->
<svg xmlns="http://www.w3.org/2000/svg" 
    xmlns:xlink="http://www.w3.org/1999/xlink"
    xmlns:krita="http://krita.org/namespaces/svg/krita"
    xmlns:sodipodi="http://sodipodi.sourceforge.net/DTD/sodipodi-0.dtd"
    width="1152pt"
    height="864pt"
    viewBox="0 0 1152 864">
<defs>
  <linearGradient id="gradient0" gradientUnits="objectBoundingBox" x1="0" y1="0" x2="1.4142135623731" y2="0" spreadMethod="pad">
   <stop stop-color="#760d22" offset="0.105590060353279" stop-opacity="1"/>
   <stop stop-color="#9d0f1f" offset="0.347826093435287" stop-opacity="1"/>
   <stop stop-color="#780422" offset="1" stop-opacity="1"/>
  </linearGradient>
  <linearGradient id="gradient1" gradientUnits="objectBoundingBox" x1="0.717679944095039" y1="0.0528979591836736" x2="0.454926624737949" y2="1.10050612244898" spreadMethod="pad">
   <stop stop-color="#77001c" offset="0" stop-opacity="1"/>
   <stop stop-color="#9d0f1f" offset="0.186335399746895" stop-opacity="1"/>
   <stop stop-color="#780422" offset="1" stop-opacity="1"/>
  </linearGradient>
  <linearGradient id="gradient2" gradientUnits="objectBoundingBox" x1="0.0740251156642426" y1="-0.0111881334148036" x2="0.361533377395902" y2="1.13569035629253" spreadMethod="pad">
   <stop stop-color="#770d1c" offset="0.0931676998734474" stop-opacity="1"/>
   <stop stop-color="#9d0f1f" offset="0.236024841666222" stop-opacity="1"/>
   <stop stop-color="#780422" offset="1" stop-opacity="1"/>
  </linearGradient>
  <linearGradient id="gradient3" gradientUnits="objectBoundingBox" x1="0.491905354919053" y1="-0.249047981721249" x2="0.491905354919054" y2="1.03248593178676" spreadMethod="pad">
   <stop stop-color="#770d1c" offset="0.198757767677307" stop-opacity="1"/>
   <stop stop-color="#9d0f1f" offset="0.391304343938828" stop-opacity="1"/>
   <stop stop-color="#780422" offset="1" stop-opacity="1"/>
  </linearGradient>
  <linearGradient id="gradient4" gradientUnits="objectBoundingBox" x1="0.506322339390546" y1="1.07064620004555" x2="0.501778818039702" y2="0.0559893720028461" spreadMethod="pad">
   <stop stop-color="#7c1622" offset="0.211180120706558" stop-opacity="1"/>
   <stop stop-color="#9d0f1f" offset="0.732919275760651" stop-opacity="1"/>
   <stop stop-color="#780422" offset="1" stop-opacity="1"/>
  </linearGradient>
  <linearGradient id="gradient5" gradientUnits="objectBoundingBox" x1="0.534000041756268" y1="1.04820889405422" x2="0.515627283545942" y2="0.0535150358471501" spreadMethod="pad">
   <stop stop-color="#7c1622" offset="0.211180120706558" stop-opacity="1"/>
   <stop stop-color="#9d0f1f" offset="0.60869562625885" stop-opacity="1"/>
   <stop stop-color="#780422" offset="1" stop-opacity="1"/>
  </linearGradient>
  <linearGradient id="gradient6" gradientUnits="objectBoundingBox" x1="0.390693178309145" y1="1.01899891381967" x2="0.524723762469289" y2="-0.0653170462660158" spreadMethod="pad">
   <stop stop-color="#7c1622" offset="0.217391297221184" stop-opacity="1"/>
   <stop stop-color="#9d0f1f" offset="0.527950286865234" stop-opacity="1"/>
   <stop stop-color="#780422" offset="1" stop-opacity="1"/>
  </linearGradient>
 </defs>
<path id="shape0" transform="translate(243.801, 241.745666687704)" fill="url(#gradient0)" fill-rule="evenodd" stroke="#780422" stroke-width="10.8576" stroke-linecap="square" stroke-linejoin="bevel" d="M4.58205 75.9433L10.6915 13.3219C12.7279 4.83661 19.1767 0.424264 30.0379 0.0848526C40.8991 -0.254558 239.285 0.424264 625.196 2.12132C643.863 -0.254558 654.215 7.38219 656.252 25.0316C658.288 42.681 661.003 82.7315 664.398 145.183L0 139.583C0 139.583 1.52735 118.37 4.58205 75.9433Z"/><path id="shape1" transform="matrix(0.999999957030699 0 0 0.999999957030699 925.199993403675 485.99997911692)" fill="#000000" stroke="#000000" stroke-width="10.8576" stroke-linecap="square" stroke-linejoin="bevel" d="M2.88 79.2C11.52 88.32 16.8 88.08 18.72 78.48C20.64 68.88 24.72 42.72 30.96 0L0 1.44C0.48 33.6 1.44 59.52 2.88 79.2Z"/><path id="shape01" transform="matrix(0.99999998496892 0 0 0.99999998496892 206.639996893978 493.200004533562)" fill="#000000" stroke="#000000" stroke-width="10.8576" stroke-linecap="square" stroke-linejoin="bevel" d="M12.24 78.48C18 82.8 21.6 82.8 23.04 78.48C24.48 74.16 29.28 48 37.44 0L0 1.44C5.76 37.92 9.84 63.6 12.24 78.48Z"/><path id="shape11" transform="matrix(1.00000000195494 0 0 1.00000000195494 876.205615859651 317.813615516456)" fill="url(#gradient1)" fill-rule="evenodd" stroke="#780422" stroke-width="14.4" stroke-linecap="square" stroke-linejoin="bevel" d="M78.9034 14.8878C100.06 16.2528 110.979 30.5845 111.662 57.8831C112.344 85.1817 112.685 125.788 112.685 179.703C112.003 187.893 108.591 192.329 102.448 193.011C96.3062 193.694 88.1167 193.694 77.8797 193.011C65.5953 191.646 56.0408 186.528 49.2162 177.656C42.3915 168.784 26.3536 155.817 1.10244 138.755L0.0787459 15.9115C-0.603719 6.35703 3.14984 1.57978 11.3394 1.57978C23.6238 1.57978 32.837 -3.5387 49.2162 4.65087C65.5953 12.8404 65.5953 12.8404 78.9034 14.8878Z"/><path id="shape02" transform="translate(175.490866703343, 319.503054227796)" fill="url(#gradient2)" fill-rule="evenodd" stroke="#780422" stroke-width="14.4" stroke-linecap="square" stroke-linejoin="bevel" d="M0.58497 52.0988C-2.14489 36.4022 4.67976 25.824 21.0589 20.3643C37.4381 14.9045 55.8646 9.10359 76.3385 2.96141C98.1774 -3.18077 109.438 0.231542 110.121 13.1984C110.803 26.1652 110.803 71.8903 110.121 150.374L53.8172 185.179C46.3101 190.639 36.4144 193.028 24.13 192.345C5.70345 191.322 0.58497 200.535 0.58497 167.777C0.58497 135.018 0.58497 135.018 0.58497 52.0988Z"/><path id="shape03" transform="matrix(1.0000000051351 0 0 1.0000000051351 220.50000113229 447.696002921081)" fill="url(#gradient3)" stroke="#780422" stroke-width="10.8576" stroke-linecap="square" stroke-linejoin="bevel" d="M0.54 14.544C0.54 5.424 6.3 0.624 17.82 0.144C29.34 -0.336 257.82 0.384 703.26 2.304C714.78 1.344 721.02 4.944 721.98 13.104C722.94 21.264 722.94 34.464 721.98 52.704C722.94 57.984 717.66 61.104 706.14 62.064C694.62 63.024 462.54 63.264 9.9 62.784C4.14 63.264 1.02 59.424 0.54 51.264C-0.18 39.024 -0.18 39.024 0.54 14.544Z"/><path id="shape2" transform="matrix(0.999999966861981 0 0 0.999999966861981 689.593627605035 360.178209807257)" fill="url(#gradient4)" stroke="#780422" stroke-width="10.8576" stroke-linecap="square" stroke-linejoin="bevel" d="M219.046 88.3818C240.646 90.3018 251.446 84.7818 251.446 71.8218C251.446 58.8618 251.686 49.2618 252.166 43.0218C254.566 35.8218 249.286 29.3418 236.326 23.5818C216.886 14.9418 149.206 -5.21825 77.2064 1.26175C5.20637 7.74175 -1.27363 9.18175 0.166369 11.3418C1.12637 12.7818 5.20637 17.3418 12.4064 25.0218C16.7264 41.8218 18.6464 57.4218 18.1664 71.8218C17.4464 93.4218 29.6864 87.6618 72.8864 88.3818C116.086 89.1018 116.086 89.1018 219.046 88.3818Z"/><path id="shape12" transform="matrix(1.0000000259875 0 0 1.0000000259875 460.44001392801 360.480009367973)" fill="url(#gradient5)" stroke="#780422" stroke-width="10.8576" stroke-linecap="square" stroke-linejoin="bevel" d="M16.92 12.8721C19.32 5.77023 29.88 1.77546 48.6 0.887728C67.32 -1.74529e-14 114.36 -0.221932 189.72 0.221932C208.44 -0.221932 221.4 3.55091 228.6 11.5405C235.8 19.53 239.4 22.859 239.4 21.5274C243.24 25.0783 245.16 31.5144 245.16 40.8355C245.16 50.1566 244.92 58.5901 244.44 66.1358C245.88 75.9008 239.64 81.0052 225.72 81.4491C211.8 81.8929 141 82.3368 13.32 82.7807C5.16 82.3368 0.84 76.7885 0.36 66.1358C-0.12 55.483 -0.12 47.0496 0.36 40.8355C1.8 31.0705 7.32 21.7493 16.92 12.8721Z"/><path id="shape04" transform="matrix(0.99999998446929 0 0 0.99999998446929 223.200006647686 359.794304033125)" fill="url(#gradient6)" stroke="#780422" stroke-width="10.8576" stroke-linecap="square" stroke-linejoin="bevel" d="M0 72.2057C0 82.2857 5.28 87.5657 15.84 88.0457C26.4 88.5257 94.56 88.5257 220.32 88.0457C232.8 87.5657 238.8 82.2857 238.32 72.2057C237.84 62.1257 237.36 50.6057 236.88 37.6457L254.16 13.1657C171.6 -2.19428 108.72 -4.11428 65.52 7.40572C22.32 18.9257 1.44 28.2857 2.88 35.4857C2.88 35.4857 1.92 47.7257 0 72.2057Z"/><path id="shape21" transform="matrix(0.99999997943742 0 0 0.99999997943742 716.587671493896 405.383877920186)" fill="none" stroke="#780422" stroke-width="14.4" stroke-linecap="square" stroke-linejoin="miter" stroke-miterlimit="2" d="M0 5.11848L224.19 0"/><path id="shape111" transform="matrix(1.00000000337183 0 0 -1.00000000337183 456.739338032938 405.383891651554)" fill="#965b24" fill-rule="evenodd" stroke="#780422" stroke-width="14.4" stroke-linecap="square" stroke-linejoin="miter" stroke-miterlimit="2" d="M0 1.0237L238.521 0"/><path id="shape011" transform="matrix(0.99999998944103 0 0 0.99999998944103 228.284365840204 402.312791960522)" fill="none" stroke="#780422" stroke-width="14.4" stroke-linecap="square" stroke-linejoin="miter" stroke-miterlimit="2" d="M0 0C110.275 14.248 169.626 7.05415 229.308 0"/><text id="shape01" krita:useRichText="true" transform="matrix(1.69192979528795 0 0 1.66660563743326 357.068122415075 372.060939891371)" fill="#000000" stroke="#cfaaa4" stroke-width="2.16" stroke-linecap="square" stroke-linejoin="bevel" font-family="Impact" font-size="48" font-size-adjust="0.2" font-stretch="normal" kerning="0" letter-spacing="5" word-spacing="0"><tspan x="0">igital</tspan></text><text id="shape02" krita:useRichText="true" transform="matrix(2.60331491050467 0 0 2.33748070354916 612.40847210719 387.064032349931)" fill="#000000" stroke="#ddbcb2" stroke-width="2.16" stroke-linecap="square" stroke-linejoin="bevel" font-family="Impact" font-size="72" font-size-adjust="0.2" font-stretch="normal" kerning="0" letter-spacing="0" word-spacing="0"><tspan x="0">C</tspan></text><text id="shape03" krita:useRichText="true" transform="matrix(1.87990826095607 0 0 1.85997212349318 722.920097172839 382.184208911274)" fill="#000000" stroke="#dba49c" stroke-width="2.16" stroke-linecap="square" stroke-linejoin="bevel" font-family="Impact" font-size="48" font-size-adjust="0.2" font-stretch="normal" kerning="0" letter-spacing="5" word-spacing="0"><tspan x="0">ouch</tspan></text><text id="shape04" krita:useRichText="true" transform="matrix(2.05508131210689 -0.912225664941653 0.861431162205257 2.17626557177384 278.129231003951 396.965559524635)" fill="#000000" stroke="#d7b5af" stroke-width="2.16" stroke-linecap="square" stroke-linejoin="bevel" font-family="Impact" font-size="72" font-size-adjust="0.2" font-stretch="normal" kerning="0" letter-spacing="0" word-spacing="0"><tspan x="0">D</tspan></text>
</svg>