<?xml version="1.0" standalone="no"?>
<!DOCTYPE svg PUBLIC "-//W3C//DTD SVG 20010904//EN" "http://www.w3.org/TR/2001/REC-SVG-20010904/DTD/svg10.dtd">
<!-- Created using Krita: http://krita.org -->
<svg xmlns="http://www.w3.org/2000/svg" 
    xmlns:xlink="http://www.w3.org/1999/xlink"
    xmlns:krita="http://krita.org/namespaces/svg/krita"
    xmlns:sodipodi="http://sodipodi.sourceforge.net/DTD/sodipodi-0.dtd"
    width="1152pt"
    height="576pt"
    viewBox="0 0 1152 576">
<defs>
  <linearGradient id="gradient0" gradientUnits="objectBoundingBox" x1="0" y1="0" x2="1.4142135623731" y2="0" spreadMethod="pad">
   <stop stop-color="#760d22" offset="0.105590060353279" stop-opacity="1"/>
   <stop stop-color="#9d0f1f" offset="0.347826093435287" stop-opacity="1"/>
   <stop stop-color="#780422" offset="1" stop-opacity="1"/>
  </linearGradient>
  <linearGradient id="gradient1" gradientUnits="objectBoundingBox" x1="0.717679944095039" y1="0.0528979591836736" x2="0.454926624737949" y2="1.10050612244898" spreadMethod="pad">
   <stop stop-color="#77001c" offset="0" stop-opacity="1"/>
   <stop stop-color="#9d0f1f" offset="0.186335399746895" stop-opacity="1"/>
   <stop stop-color="#780422" offset="1" stop-opacity="1"/>
  </linearGradient>
  <linearGradient id="gradient2" gradientUnits="objectBoundingBox" x1="0.0740251156642426" y1="-0.0111881334148036" x2="0.361533377395902" y2="1.13569035629253" spreadMethod="pad">
   <stop stop-color="#770d1c" offset="0.0931676998734474" stop-opacity="1"/>
   <stop stop-color="#9d0f1f" offset="0.236024841666222" stop-opacity="1"/>
   <stop stop-color="#780422" offset="1" stop-opacity="1"/>
  </linearGradient>
  <linearGradient id="gradient3" gradientUnits="objectBoundingBox" x1="0.491905354919053" y1="-0.249047981721249" x2="0.491905354919054" y2="1.03248593178676" spreadMethod="pad">
   <stop stop-color="#770d1c" offset="0.198757767677307" stop-opacity="1"/>
   <stop stop-color="#9d0f1f" offset="0.391304343938828" stop-opacity="1"/>
   <stop stop-color="#780422" offset="1" stop-opacity="1"/>
  </linearGradient>
  <linearGradient id="gradient4" gradientUnits="objectBoundingBox" x1="0.506322339390546" y1="1.07064620004555" x2="0.501778818039702" y2="0.0559893720028461" spreadMethod="pad">
   <stop stop-color="#7c1622" offset="0.211180120706558" stop-opacity="1"/>
   <stop stop-color="#9d0f1f" offset="0.732919275760651" stop-opacity="1"/>
   <stop stop-color="#780422" offset="1" stop-opacity="1"/>
  </linearGradient>
  <linearGradient id="gradient5" gradientUnits="objectBoundingBox" x1="0.534000041756268" y1="1.04820889405422" x2="0.515627283545942" y2="0.0535150358471501" spreadMethod="pad">
   <stop stop-color="#7c1622" offset="0.211180120706558" stop-opacity="1"/>
   <stop stop-color="#9d0f1f" offset="0.60869562625885" stop-opacity="1"/>
   <stop stop-color="#780422" offset="1" stop-opacity="1"/>
  </linearGradient>
  <linearGradient id="gradient6" gradientUnits="objectBoundingBox" x1="0.390693178309145" y1="1.01899891381967" x2="0.524723762469289" y2="-0.0653170462660158" spreadMethod="pad">
   <stop stop-color="#7c1622" offset="0.217391297221184" stop-opacity="1"/>
   <stop stop-color="#9d0f1f" offset="0.527950286865234" stop-opacity="1"/>
   <stop stop-color="#780422" offset="1" stop-opacity="1"/>
  </linearGradient>
 </defs>
<path id="shape0" transform="matrix(1.27763718221414 0 0 1.27765183827478 106.289222660991 136.786795527232)" fill="url(#gradient0)" fill-rule="evenodd" stroke="#780422" stroke-width="10.8576" stroke-linecap="square" stroke-linejoin="bevel" d="M4.58205 75.9433L10.6915 13.3219C12.7279 4.83661 19.1767 0.424264 30.0379 0.0848526C40.8991 -0.254558 239.285 0.424264 625.196 2.12132C643.863 -0.254558 654.215 7.38219 656.252 25.0316C658.288 42.681 661.003 82.7315 664.398 145.183L0 139.583C0 139.583 1.52735 118.37 4.58205 75.9433Z"/><path id="shape1" transform="matrix(1.27763712731497 0 0 1.27765178337497 976.869912556817 448.858766720236)" fill="#000000" stroke="#000000" stroke-width="10.8576" stroke-linecap="square" stroke-linejoin="bevel" d="M2.88 79.2C11.52 88.32 16.8 88.08 18.72 78.48C20.64 68.88 24.72 42.72 30.96 0L0 1.44C0.48 33.6 1.44 59.52 2.88 79.2Z"/><path id="shape01" transform="matrix(1.27763716300988 0 0 1.27765181907029 58.8109433643617 458.057892429433)" fill="#000000" stroke="#000000" stroke-width="10.8576" stroke-linecap="square" stroke-linejoin="bevel" d="M12.24 78.48C18 82.8 21.6 82.8 23.04 78.48C24.48 74.16 29.28 48 37.44 0L0 1.44C5.76 37.92 9.84 63.6 12.24 78.48Z"/><path id="shape11" transform="matrix(1.27763718471185 0 0 1.27765184077251 914.272873995018 233.975159925487)" fill="url(#gradient1)" fill-rule="evenodd" stroke="#780422" stroke-width="14.4" stroke-linecap="square" stroke-linejoin="bevel" d="M78.9034 14.8878C100.06 16.2528 110.979 30.5845 111.662 57.8831C112.344 85.1817 112.685 125.788 112.685 179.703C112.003 187.893 108.591 192.329 102.448 193.011C96.3062 193.694 88.1167 193.694 77.8797 193.011C65.5953 191.646 56.0408 186.528 49.2162 177.656C42.3915 168.784 26.3536 155.817 1.10244 138.755L0.0787459 15.9115C-0.603719 6.35703 3.14984 1.57978 11.3394 1.57978C23.6238 1.57978 32.837 -3.5387 49.2162 4.65087C65.5953 12.8404 65.5953 12.8404 78.9034 14.8878Z"/><path id="shape02" transform="matrix(1.27763718221414 0 0 1.27765183827478 19.0136562156838 236.133666142448)" fill="url(#gradient2)" fill-rule="evenodd" stroke="#780422" stroke-width="14.4" stroke-linecap="square" stroke-linejoin="bevel" d="M0.58497 52.0988C-2.14489 36.4022 4.67976 25.824 21.0589 20.3643C37.4381 14.9045 55.8646 9.10359 76.3385 2.96141C98.1774 -3.18077 109.438 0.231542 110.121 13.1984C110.803 26.1652 110.803 71.8903 110.121 150.374L53.8172 185.179C46.3101 190.639 36.4144 193.028 24.13 192.345C5.70345 191.322 0.58497 200.535 0.58497 167.777C0.58497 135.018 0.58497 135.018 0.58497 52.0988Z"/><path id="shape03" transform="matrix(1.27763718877494 0 0 1.27765184483565 76.5190001248748 399.919621120389)" fill="url(#gradient3)" stroke="#780422" stroke-width="10.8576" stroke-linecap="square" stroke-linejoin="bevel" d="M0.54 14.544C0.54 5.424 6.3 0.624 17.82 0.144C29.34 -0.336 257.82 0.384 703.26 2.304C714.78 1.344 721.02 4.944 721.98 13.104C722.94 21.264 722.94 34.464 721.98 52.704C722.94 57.984 717.66 61.104 706.14 62.064C694.62 63.024 462.54 63.264 9.9 62.784C4.14 63.264 1.02 59.424 0.54 51.264C-0.18 39.024 -0.18 39.024 0.54 14.544Z"/><path id="shape2" transform="matrix(1.27763713987578 0 0 1.27765179593593 675.850459568666 288.102336837813)" fill="url(#gradient4)" stroke="#780422" stroke-width="10.8576" stroke-linecap="square" stroke-linejoin="bevel" d="M219.046 88.3818C240.646 90.3018 251.446 84.7818 251.446 71.8218C251.446 58.8618 251.686 49.2618 252.166 43.0218C254.566 35.8218 249.286 29.3418 236.326 23.5818C216.886 14.9418 149.206 -5.21825 77.2064 1.26175C5.20637 7.74175 -1.27363 9.18175 0.166369 11.3418C1.12637 12.7818 5.20637 17.3418 12.4064 25.0218C16.7264 41.8218 18.6464 57.4218 18.1664 71.8218C17.4464 93.4218 29.6864 87.6618 72.8864 88.3818C116.086 89.1018 116.086 89.1018 219.046 88.3818Z"/><path id="shape12" transform="matrix(1.27763721541674 0 0 1.27765187147775 383.075281973624 288.487946630299)" fill="url(#gradient5)" stroke="#780422" stroke-width="10.8576" stroke-linecap="square" stroke-linejoin="bevel" d="M16.92 12.8721C19.32 5.77023 29.88 1.77546 48.6 0.887728C67.32 -1.74529e-14 114.36 -0.221932 189.72 0.221932C208.44 -0.221932 221.4 3.55091 228.6 11.5405C235.8 19.53 239.4 22.859 239.4 21.5274C243.24 25.0783 245.16 31.5144 245.16 40.8355C245.16 50.1566 244.92 58.5901 244.44 66.1358C245.88 75.9008 239.64 81.0052 225.72 81.4491C211.8 81.8929 141 82.3368 13.32 82.7807C5.16 82.3368 0.84 76.7885 0.36 66.1358C-0.12 55.483 -0.12 47.0496 0.36 40.8355C1.8 31.0705 7.32 21.7493 16.92 12.8721Z"/><path id="shape04" transform="matrix(1.27763716237153 0 0 1.27765181843194 79.9686275635279 287.611869816925)" fill="url(#gradient6)" stroke="#780422" stroke-width="10.8576" stroke-linecap="square" stroke-linejoin="bevel" d="M0 72.2057C0 82.2857 5.28 87.5657 15.84 88.0457C26.4 88.5257 94.56 88.5257 220.32 88.0457C232.8 87.5657 238.8 82.2857 238.32 72.2057C237.84 62.1257 237.36 50.6057 236.88 37.6457L254.16 13.1657C171.6 -2.19428 108.72 -4.11428 65.52 7.40572C22.32 18.9257 1.44 28.2857 2.88 35.4857C2.88 35.4857 1.92 47.7257 0 72.2057Z"/><path id="shape21" transform="matrix(1.27763715594263 0 0 1.27765181200296 710.339053416857 345.859456831683)" fill="none" stroke="#780422" stroke-width="14.4" stroke-linecap="square" stroke-linejoin="miter" stroke-miterlimit="2" d="M0 5.11848L224.19 0"/><path id="shape111" transform="matrix(1.27763718652212 0 0 -1.2776518425828 378.347160850757 345.859474375591)" fill="#965b24" fill-rule="evenodd" stroke="#780422" stroke-width="14.4" stroke-linecap="square" stroke-linejoin="miter" stroke-miterlimit="2" d="M0 1.0237L238.521 0"/><path id="shape011" transform="matrix(1.27763716872361 0 0 1.27765182478409 86.4645939156212 341.935678209819)" fill="none" stroke="#780422" stroke-width="14.4" stroke-linecap="square" stroke-linejoin="miter" stroke-miterlimit="2" d="M0 0C110.275 14.248 169.626 7.05415 229.308 0"/><text id="shape0111" krita:useRichText="true" transform="matrix(2.16167241615585 0 0 2.12934175634571 251.003509780892 303.284343802451)" fill="#000000" stroke="#cfaaa4" stroke-width="2.16" stroke-linecap="square" stroke-linejoin="bevel" font-family="Impact" font-size="48" font-size-adjust="0.2" font-stretch="normal" kerning="0" letter-spacing="5" word-spacing="0"><tspan x="0">igital</tspan></text><text id="shape021" krita:useRichText="true" transform="matrix(3.32609192667325 0 0 2.9864865178214 586.391225280882 322.453072461937)" fill="#000000" stroke="#ddbcb2" stroke-width="2.16" stroke-linecap="square" stroke-linejoin="bevel" font-family="Impact" font-size="72" font-size-adjust="0.2" font-stretch="normal" kerning="0" letter-spacing="0" word-spacing="0"><tspan x="0">C</tspan></text><text id="shape031" krita:useRichText="true" transform="matrix(2.40184069334901 0 0 2.3763968027209 718.429595917882 316.21835707508)" fill="#000000" stroke="#dba49c" stroke-width="2.16" stroke-linecap="square" stroke-linejoin="bevel" font-family="Impact" font-size="48" font-size-adjust="0.2" font-stretch="normal" kerning="0" letter-spacing="5" word-spacing="0"><tspan x="0">ouch</tspan></text><text id="shape041" krita:useRichText="true" transform="matrix(2.62564829682119 -1.16550679773413 1.10059648275138 2.78050970835095 150.148246991275 335.103776858425)" fill="#000000" stroke="#d7b5af" stroke-width="2.16" stroke-linecap="square" stroke-linejoin="bevel" font-family="Impact" font-size="72" font-size-adjust="0.2" font-stretch="normal" kerning="0" letter-spacing="0" word-spacing="0"><tspan x="0">D</tspan></text><path id="shape011" transform="matrix(1.27763718221414 0 0 1.27765183827478 691.701301914329 394.584143311628)" fill="none" stroke="#780422" stroke-width="4.176" stroke-linecap="square" stroke-linejoin="miter" stroke-miterlimit="2" d="M0 0L2.88 0.72"/>
</svg>
